<svg xmlns="http://www.w3.org/2000/svg" xmlns:xlink="http://www.w3.org/1999/xlink" width="200" height="200" class="icon" p-id="7519" t="1566357812305" version="1.1" viewBox="0 0 1024 1024"><defs><style type="text/css"/></defs><path fill="#949494" d="M426.666667 554.666667H128a42.666667 42.666667 0 0 0-42.666667 42.666666v298.666667a42.666667 42.666667 0 0 0 42.666667 42.666667h298.666667a42.666667 42.666667 0 0 0 42.666666-42.666667v-298.666667a42.666667 42.666667 0 0 0-42.666666-42.666666z m-42.666667 298.666666H170.666667v-213.333333h213.333333zM896 85.333333h-298.666667a42.666667 42.666667 0 0 0-42.666666 42.666667v298.666667a42.666667 42.666667 0 0 0 42.666666 42.666666h298.666667a42.666667 42.666667 0 0 0 42.666667-42.666666V128a42.666667 42.666667 0 0 0-42.666667-42.666667z m-42.666667 298.666667h-213.333333V170.666667h213.333333z m42.666667 170.666667h-298.666667a42.666667 42.666667 0 0 0-42.666666 42.666666v298.666667a42.666667 42.666667 0 0 0 42.666666 42.666667h298.666667a42.666667 42.666667 0 0 0 42.666667-42.666667v-298.666667a42.666667 42.666667 0 0 0-42.666667-42.666666z m-42.666667 298.666666h-213.333333v-213.333333h213.333333zM426.666667 85.333333H128a42.666667 42.666667 0 0 0-42.666667 42.666667v298.666667a42.666667 42.666667 0 0 0 42.666667 42.666666h298.666667a42.666667 42.666667 0 0 0 42.666666-42.666666V128a42.666667 42.666667 0 0 0-42.666666-42.666667zM384 384H170.666667V170.666667h213.333333z" p-id="7520"/></svg>